<?xml version="1.0" encoding="UTF-8"?>
<svg version="1.1" xmlns="http://www.w3.org/2000/svg" width="16" height="16">
<path d="M0 0 C1.35384615 7.26153846 1.35384615 7.26153846 -0.4375 11 C-0.953125 11.66 -1.46875 12.32 -2 13 C-2.53625 12.814375 -3.0725 12.62875 -3.625 12.4375 C-6.61990614 11.88580676 -9.03745829 12.39402556 -12 13 C-12.33 12.34 -12.66 11.68 -13 11 C-13.66 10.67 -14.32 10.34 -15 10 C-15 7.36 -15 4.72 -15 2 C-5.69067797 -3.01271186 -5.69067797 -3.01271186 0 0 Z " fill="#268CE5" transform="translate(15,3)"/>
<path d="M0 0 C0.640625 2.08203125 0.640625 2.08203125 1 4 C0.09636719 4.06058594 -0.80726562 4.12117187 -1.73828125 4.18359375 C-2.91777344 4.26738281 -4.09726563 4.35117188 -5.3125 4.4375 C-7.07013672 4.55931641 -7.07013672 4.55931641 -8.86328125 4.68359375 C-12.02590958 4.8867371 -12.02590958 4.8867371 -15 6 C-14.63327178 3.34122043 -14.20911362 2.20164528 -12.25 0.3125 C-7.82910158 -2.26635741 -4.5059346 -2.62846185 0 0 Z " fill="#7AEBFE" transform="translate(15,3)"/>
<path d="M0 0 C1.32 0.33 2.64 0.66 4 1 C2.515 3.475 2.515 3.475 1 6 C0.46375 5.814375 -0.0725 5.62875 -0.625 5.4375 C-3.61990614 4.88580676 -6.03745829 5.39402556 -9 6 C-9.33 5.34 -9.66 4.68 -10 4 C-10.66 3.67 -11.32 3.34 -12 3 C-12 2.34 -12 1.68 -12 1 C-8.04 1.33 -4.08 1.66 0 2 C0 1.34 0 0.68 0 0 Z " fill="#2955BD" transform="translate(12,10)"/>
<path d="M0 0 C0 1.32 0 2.64 0 4 C-2.64 3.67 -5.28 3.34 -8 3 C-5.53387212 -0.1151089 -3.89156016 -0.31553191 0 0 Z " fill="#31BAF8" transform="translate(8,7)"/>
<path d="M0 0 C2.97 0 5.94 0 9 0 C9 0.99 9 1.98 9 3 C8.46375 2.814375 7.9275 2.62875 7.375 2.4375 C4.38009386 1.88580676 1.96254171 2.39402556 -1 3 C-0.67 2.01 -0.34 1.02 0 0 Z " fill="#242BAE" transform="translate(4,13)"/>
<path d="M0 0 C1.65 0 3.3 0 5 0 C5 0.33 5 0.66 5 1 C3.35 1 1.7 1 0 1 C0 0.67 0 0.34 0 0 Z " fill="#B2FFFF" transform="translate(5,0)"/>
<path d="M0 0 C0.99 0.495 0.99 0.495 2 1 C1.01 1.495 1.01 1.495 0 2 C0 1.34 0 0.68 0 0 Z " fill="#63FFFF" transform="translate(3,1)"/>
<path d="" fill="#0000FF" transform="translate(0,0)"/>
<path d="" fill="#3F3F7F" transform="translate(0,0)"/>
<path d="" fill="#5555AA" transform="translate(0,0)"/>
<path d="" fill="#007F7F" transform="translate(0,0)"/>
<path d="" fill="#7F7FFF" transform="translate(0,0)"/>
<path d="" fill="#FFFFFF" transform="translate(0,0)"/>
<path d="" fill="#7FFFFF" transform="translate(0,0)"/>
</svg>
